<?xml version="1.0" encoding="utf-8"?>
<!-- Generator: Adobe Illustrator 19.2.0, SVG Export Plug-In . SVG Version: 6.00 Build 0)  -->
<svg version="1.1" id="图层_1" xmlns="http://www.w3.org/2000/svg" xmlns:xlink="http://www.w3.org/1999/xlink" x="0px" y="0px"
	 viewBox="0 0 17 17" style="enable-background:new 0 0 17 17;" xml:space="preserve">
<style type="text/css">
	.st0{fill:#EA5514;}
</style>
<path class="st0" d="M17.2,9c0-3.6-2.3-6.7-5.4-7.9c-0.2,0.5-0.5,1-0.9,1.5C10,3.6,9,4.4,8.1,4.2C7.8,4.1,7.4,3.8,7.3,3.4
	C7.1,2.8,7.2,2.2,7.7,1.5C9,2.2,9.8,2.1,10.6,1.4C10.8,1.2,11,1,11.2,0.9c-0.8-0.2-1.6-0.4-2.4-0.4C4.1,0.5,0.2,4.3,0.2,9
	c0,3.8,2.5,7.1,6,8.1C6.1,17,6,16.9,5.9,16.8c-0.5-0.6-0.8-1.3-0.8-2.3c0-0.4,0.1-0.9,0.2-1.7l0.3-1.3C6,9.8,6.2,8.7,6.2,7.9
	c0-0.8-1.1-1-1.8-0.9c1-1.5,4-2.1,5-1.6c1.1,0.6,0.3,3.1,0,4.3c0,0-0.8,3.1-0.8,4.4c0,1,0.5,1.3,1.3,1.3c1,0,2.9-1,5.9-6.2
	c0,0-0.5,2.8-2.7,5.7c-1.1,1.4-2.5,2.3-3.8,2.6C13.8,17.1,17.2,13.5,17.2,9z"/>
</svg>
